# xmcd
#
# Track frame offsets:
#	150
#	17168
#	33710
#	51153
#	68099
#	85858
#	101072
#	118253
#	137616
#	156691
#	173476
#
# Disc length: 2540 seconds
#
# Revision: 2
# Processed by: cddbd v1.5.2PL0 Copyright (c) Steve Scherf et al.
# Submitted via: audiograbber 1.83.01
#
DISCID=9709ea0b
DTITLE=Rascal Flatts - Nothing Like This
DYEAR=2010
DGENRE=Country
TTITLE0=Why Wait
TTITLE1=Easy
TTITLE2=Sunny Afternoon
TTITLE3=Play
TTITLE4=Nothing Like This
TTITLE5=All Night To Get There
TTITLE6=Red Camaro
TTITLE7=They Try
TTITLE8=Summer Young
TTITLE9=Tonight Tonight
TTITLE10=I Wont Let Go
EXTD=
EXTT0=
EXTT1=
EXTT2=
EXTT3=
EXTT4=
EXTT5=
EXTT6=
EXTT7=
EXTT8=
EXTT9=
EXTT10=
PLAYORDER=
